<?xml version="1.0" encoding="UTF-8"?>
<svg width="457px" height="167px" viewBox="0 0 457 167" version="1.1" xmlns="http://www.w3.org/2000/svg" xmlns:xlink="http://www.w3.org/1999/xlink">
    <!-- Generator: Sketch 52.4 (67378) - http://www.bohemiancoding.com/sketch -->
    <title>Artboard</title>
    <desc>Created with Sketch.</desc>
    <g id="Artboard" stroke="none" stroke-width="1" fill="none" fill-rule="evenodd">
        <path d="M87.5923566,138.743164 L87.6773176,116.483398 C87.6773176,111.329076 87.2525171,103.767628 86.4029035,93.7988281 C85.5532899,83.8300283 85.1284894,77.1181813 85.1284894,73.6630859 C85.1284894,70.2079905 85.2417696,66.0874263 85.4683332,61.3012695 C85.6948968,56.5151128 85.8081769,52.9326291 85.8081769,50.5537109 C85.2984088,52.0830155 83.3443268,60.0975837 79.9458723,74.5976562 C71.1098906,112.093937 64.794524,130.841797 60.9995832,130.841797 C58.7339469,130.841797 56.963945,130.162116 55.6895246,128.802734 C54.4151042,127.443353 53.7779035,125.630871 53.7779035,123.365234 C53.7779035,117.871066 51.6114213,106.557215 47.2783918,89.4233398 C42.9453623,72.2894651 39.2779185,59.1631315 36.2759504,50.0439453 C34.066955,90.938681 32.9624738,118.57903 32.9624738,132.96582 L33.2173566,138.148438 C33.2173566,140.017587 32.8208762,141.447749 32.0279035,142.438965 C31.2349308,143.430181 29.9888495,143.925781 28.2896223,143.925781 C26.590395,143.925781 25.2027136,143.515141 24.1265363,142.693848 C23.0503591,141.872554 22.5122785,140.895513 22.5122785,139.762695 C22.5122785,127.924745 23.4043594,110.196407 25.188548,86.5771484 C26.9727367,62.9578897 27.8648176,45.2295514 27.8648176,33.3916016 C27.1851267,32.3154243 26.8452863,31.1118231 26.8452863,29.7807617 C26.8452863,28.4497004 27.5532871,27.4443393 28.9693098,26.7646484 C30.3853325,26.0849575 31.914614,25.7451172 33.5572004,25.7451172 C36.0494003,25.7451172 40.9770854,37.3988092 48.3404035,60.706543 C55.7037216,84.0142767 60.2349263,100.142533 61.9341535,109.091797 C62.4439217,107.39257 63.5059228,103.102085 65.1201887,96.2202148 C66.7344546,89.3383445 68.4478163,82.1875371 70.2603254,74.7675781 C72.0728344,67.2909782 74.0552365,59.7578504 76.207591,52.1679688 C81.0787091,34.722569 85.2134334,26 88.6118879,26 C90.1411924,26 91.5855139,26.4248004 92.9448957,27.2744141 C94.3042775,28.1240277 94.9839582,29.2851489 94.9839582,30.7578125 C94.9839582,39.1406669 95.3521186,51.6581199 96.0884504,68.3105469 C96.8247822,84.9629739 97.1929426,97.0556264 97.1929426,104.588867 L96.7681379,122.94043 L96.7681379,123.025391 C96.7681379,124.328132 97.1079782,128.462856 97.7876691,135.429688 L98.1275129,138.828125 C98.6372811,140.074225 98.8921613,141.391106 98.8921613,142.778809 C98.8921613,144.166511 98.3540808,145.653312 97.2779035,147.239258 C96.2017263,148.825203 94.7857248,149.618164 93.0298566,149.618164 C89.4048385,149.618164 87.5923566,145.9932 87.5923566,138.743164 Z M108.584648,87.3417969 L108.75457,80.7148438 C108.75457,80.1484347 108.66961,79.8652344 108.499687,79.8652344 L108.499687,76.7216797 C108.499687,58.4833072 109.547528,45.5127338 111.643242,37.8095703 C113.39911,31.2958659 115.098312,27.2744217 116.740898,25.7451172 C118.383485,24.2158127 119.997726,23.4511719 121.583672,23.4511719 C135.064208,23.4511719 144.353178,30.2479789 149.450859,43.8417969 C152.396187,51.6582422 153.868828,61.2870522 153.868828,72.7285156 L153.868828,74.0029297 L154.208672,93.7138672 C154.208672,127.075362 146.477304,143.755859 131.014336,143.755859 C124.613913,143.755859 119.714548,140.215856 116.316094,133.135742 C113.087562,126.338833 111.10516,119.655306 110.368828,113.084961 C109.179369,103.172802 108.584648,94.5918331 108.584648,87.3417969 Z M118.864922,63.5527344 L118.015312,79.6103516 C118.015312,96.4327013 119.374674,111.102476 122.093437,123.620117 C124.982124,130.926794 127.729167,135.231439 130.334648,136.53418 C132.430362,136.53418 134.327804,135.684579 136.027031,133.985352 C137.726258,132.286124 139.07146,130.006362 140.062676,127.145996 C141.053892,124.28563 141.889332,121.269547 142.569023,118.097656 C143.192073,114.982406 143.673514,111.640643 144.013359,108.072266 C144.579768,101.898407 144.862969,96.6308812 144.862969,92.2695312 C144.862969,87.9081813 144.480648,81.2246544 143.715996,72.21875 C142.951344,63.2128456 142.569023,56.5009987 142.569023,52.0830078 L142.569023,49.0244141 C142.455742,44.7763459 141.06806,40.995622 138.405937,37.6821289 C135.743815,34.3686358 132.345411,32.7119141 128.210625,32.7119141 C124.245761,32.7119141 121.611999,34.9491964 120.309258,39.4238281 C119.23308,43.1621281 118.695,47.7782928 118.695,53.2724609 L118.864922,63.5527344 Z M184.801549,139.507812 L174.521276,138.998047 C173.784944,138.998047 172.765423,139.309567 171.462682,139.932617 C170.159941,140.555667 169.01298,140.867188 168.021764,140.867188 C167.030548,140.867188 166.053507,140.484867 165.090612,139.720215 C164.127716,138.955563 163.646276,137.610361 163.646276,135.68457 C163.646276,125.319284 167.55444,107.251105 175.370885,81.4794922 C183.187331,55.707879 187.860136,39.8203425 189.38944,33.8164062 L175.200963,34.8359375 C173.954863,34.8359375 172.892862,34.340337 172.014928,33.3491211 C171.136994,32.3579052 170.698034,31.239264 170.698034,29.9931641 C170.698034,26.7079914 177.07004,25.0654297 189.814245,25.0654297 C195.534976,25.0654297 198.395299,26.6796714 198.395299,29.9082031 C198.395299,33.9863485 197.135058,39.5229142 194.614538,46.5180664 C192.094017,53.5132186 190.607216,58.4267437 190.154088,61.2587891 C188.681425,70.4912571 185.651182,83.943271 181.063268,101.615234 C176.475355,119.287198 173.954872,129.284168 173.501745,131.606445 L176.475378,131.606445 L183.782018,131.09668 L183.782018,131.011719 C188.483214,131.011719 190.833776,132.42772 190.833776,135.259766 C190.833776,136.675788 190.210735,137.737789 188.964635,138.445801 C187.718535,139.153812 186.330854,139.507812 184.801549,139.507812 Z M206.983294,87.3417969 L207.153216,80.7148438 C207.153216,80.1484347 207.068256,79.8652344 206.898333,79.8652344 L206.898333,76.7216797 C206.898333,58.4833072 207.946174,45.5127338 210.041888,37.8095703 C211.797756,31.2958659 213.496958,27.2744217 215.139544,25.7451172 C216.782131,24.2158127 218.396372,23.4511719 219.982318,23.4511719 C233.462854,23.4511719 242.751823,30.2479789 247.849505,43.8417969 C250.794832,51.6582422 252.267474,61.2870522 252.267474,72.7285156 L252.267474,74.0029297 L252.607318,93.7138672 C252.607318,127.075362 244.87595,143.755859 229.412982,143.755859 C223.012559,143.755859 218.113194,140.215856 214.71474,133.135742 C211.486208,126.338833 209.503806,119.655306 208.767474,113.084961 C207.578015,103.172802 206.983294,94.5918331 206.983294,87.3417969 Z M217.263568,63.5527344 L216.413958,79.6103516 C216.413958,96.4327013 217.77332,111.102476 220.492083,123.620117 C223.38077,130.926794 226.127812,135.231439 228.733294,136.53418 C230.829008,136.53418 232.72645,135.684579 234.425677,133.985352 C236.124904,132.286124 237.470106,130.006362 238.461322,127.145996 C239.452537,124.28563 240.287978,121.269547 240.967669,118.097656 C241.590719,114.982406 242.07216,111.640643 242.412005,108.072266 C242.978414,101.898407 243.261615,96.6308812 243.261615,92.2695312 C243.261615,87.9081813 242.879294,81.2246544 242.114642,72.21875 C241.34999,63.2128456 240.967669,56.5009987 240.967669,52.0830078 L240.967669,49.0244141 C240.854387,44.7763459 239.466706,40.995622 236.804583,37.6821289 C234.142461,34.3686358 230.744057,32.7119141 226.609271,32.7119141 C222.644407,32.7119141 220.010645,34.9491964 218.707904,39.4238281 C217.631726,43.1621281 217.093646,47.7782928 217.093646,53.2724609 L217.263568,63.5527344 Z M262.894531,87.3417969 L263.064453,80.7148438 C263.064453,80.1484347 262.979493,79.8652344 262.80957,79.8652344 L262.80957,76.7216797 C262.80957,58.4833072 263.857411,45.5127338 265.953125,37.8095703 C267.708993,31.2958659 269.408195,27.2744217 271.050781,25.7451172 C272.693368,24.2158127 274.307609,23.4511719 275.893555,23.4511719 C289.374091,23.4511719 298.66306,30.2479789 303.760742,43.8417969 C306.706069,51.6582422 308.178711,61.2870522 308.178711,72.7285156 L308.178711,74.0029297 L308.518555,93.7138672 C308.518555,127.075362 300.787187,143.755859 285.324219,143.755859 C278.923796,143.755859 274.024431,140.215856 270.625977,133.135742 C267.397445,126.338833 265.415043,119.655306 264.678711,113.084961 C263.489252,103.172802 262.894531,94.5918331 262.894531,87.3417969 Z M273.174805,63.5527344 L272.325195,79.6103516 C272.325195,96.4327013 273.684557,111.102476 276.40332,123.620117 C279.292007,130.926794 282.039049,135.231439 284.644531,136.53418 C286.740245,136.53418 288.637687,135.684579 290.336914,133.985352 C292.036141,132.286124 293.381343,130.006362 294.372559,127.145996 C295.363774,124.28563 296.199215,121.269547 296.878906,118.097656 C297.501956,114.982406 297.983397,111.640643 298.323242,108.072266 C298.889651,101.898407 299.172852,96.6308812 299.172852,92.2695312 C299.172852,87.9081813 298.790531,81.2246544 298.025879,72.21875 C297.261227,63.2128456 296.878906,56.5009987 296.878906,52.0830078 L296.878906,49.0244141 C296.765624,44.7763459 295.377943,40.995622 292.71582,37.6821289 C290.053698,34.3686358 286.655294,32.7119141 282.520508,32.7119141 C278.555644,32.7119141 275.921882,34.9491964 274.619141,39.4238281 C273.542963,43.1621281 273.004883,47.7782928 273.004883,53.2724609 L273.174805,63.5527344 Z M339.111432,139.507812 L328.831159,138.998047 C328.094827,138.998047 327.075306,139.309567 325.772565,139.932617 C324.469824,140.555667 323.322863,140.867188 322.331647,140.867188 C321.340431,140.867188 320.36339,140.484867 319.400495,139.720215 C318.437599,138.955563 317.956159,137.610361 317.956159,135.68457 C317.956159,125.319284 321.864323,107.251105 329.680768,81.4794922 C337.497214,55.707879 342.170018,39.8203425 343.699323,33.8164062 L329.510846,34.8359375 C328.264746,34.8359375 327.202745,34.340337 326.324811,33.3491211 C325.446877,32.3579052 325.007917,31.239264 325.007917,29.9931641 C325.007917,26.7079914 331.379923,25.0654297 344.124128,25.0654297 C349.844859,25.0654297 352.705182,26.6796714 352.705182,29.9082031 C352.705182,33.9863485 351.444941,39.5229142 348.924421,46.5180664 C346.4039,53.5132186 344.917099,58.4267437 344.463971,61.2587891 C342.991308,70.4912571 339.961065,83.943271 335.373151,101.615234 C330.785238,119.287198 328.264755,129.284168 327.811628,131.606445 L330.78526,131.606445 L338.091901,131.09668 L338.091901,131.011719 C342.793096,131.011719 345.143659,132.42772 345.143659,135.259766 C345.143659,136.675788 344.520618,137.737789 343.274518,138.445801 C342.028418,139.153812 340.640737,139.507812 339.111432,139.507812 Z M364.26681,52.6777344 L363.33224,37.9794922 C363.33224,29.7665605 365.767762,25.6601562 370.63888,25.6601562 C373.75413,25.6601562 378.002135,26.382317 383.383021,27.8266602 C388.763907,29.2710033 391.45431,31.1259652 391.45431,33.3916016 C391.45431,35.7705197 389.755108,37.5830016 386.356654,38.8291016 C380.975767,37.0165925 376.586163,35.9121114 373.187708,35.515625 C373.357631,38.007825 373.442591,40.4999875 373.442591,42.9921875 L372.677943,67.9707031 C372.677943,68.0839849 372.847863,68.9902259 373.187708,70.6894531 L379.389857,70.4345703 C384.997307,70.4345703 387.80099,72.020492 387.80099,75.1923828 C387.80099,76.4384828 387.291229,77.5288039 386.271693,78.4633789 C385.252156,79.3979539 383.963595,79.8652344 382.40597,79.8652344 C380.848345,79.8652344 379.163303,79.7519543 377.350794,79.5253906 L372.932826,79.5253906 C373.272671,83.9433815 373.442591,88.332986 373.442591,92.6943359 L372.677943,124.214844 C372.677943,130.728548 372.791223,133.985352 373.017787,133.985352 L385.846888,133.560547 C390.264879,133.560547 392.473841,134.976548 392.473841,137.808594 C392.473841,139.564462 391.7092,140.838863 390.179896,141.631836 C388.650591,142.424809 386.92307,142.821289 384.997279,142.821289 L370.299037,142.821289 C368.769732,142.821289 367.382051,142.297369 366.135951,141.249512 C364.889851,140.201655 364.23849,138.941414 364.181849,137.46875 L364.181849,132.880859 L363.077357,103.484375 L364.26681,52.6777344 Z M403.525703,52.6777344 L402.591133,37.9794922 C402.591133,29.7665605 405.026655,25.6601562 409.897774,25.6601562 C413.013023,25.6601562 417.261028,26.382317 422.641914,27.8266602 C428.0228,29.2710033 430.713203,31.1259652 430.713203,33.3916016 C430.713203,35.7705197 429.014001,37.5830016 425.615547,38.8291016 C420.234661,37.0165925 415.845056,35.9121114 412.446602,35.515625 C412.616524,38.007825 412.701484,40.4999875 412.701484,42.9921875 L411.936836,67.9707031 C411.936836,68.0839849 412.106756,68.9902259 412.446602,70.6894531 L418.64875,70.4345703 C424.2562,70.4345703 427.059883,72.020492 427.059883,75.1923828 C427.059883,76.4384828 426.550122,77.5288039 425.530586,78.4633789 C424.51105,79.3979539 423.222488,79.8652344 421.664863,79.8652344 C420.107238,79.8652344 418.422197,79.7519543 416.609688,79.5253906 L412.191719,79.5253906 C412.531564,83.9433815 412.701484,88.332986 412.701484,92.6943359 L411.936836,124.214844 C411.936836,130.728548 412.050116,133.985352 412.27668,133.985352 L425.105781,133.560547 C429.523772,133.560547 431.732734,134.976548 431.732734,137.808594 C431.732734,139.564462 430.968094,140.838863 429.438789,141.631836 C427.909485,142.424809 426.181963,142.821289 424.256172,142.821289 L409.55793,142.821289 C408.028625,142.821289 406.640944,142.297369 405.394844,141.249512 C404.148744,140.201655 403.497383,138.941414 403.440742,137.46875 L403.440742,132.880859 L402.33625,103.484375 L403.525703,52.6777344 Z" id="mozoozee" fill="#FF502B"></path>
    </g>
</svg>